<svg version="1.1" id="Layer_1" xmlns="http://www.w3.org/2000/svg" xmlns:xlink="http://www.w3.org/1999/xlink" x="0px" y="0px"
	 width="100%" viewBox="0 0 111 103" enable-background="new 0 0 111 103" xml:space="preserve">
<path fill="#010101" opacity="1.000000" stroke="none" 
	d="
M64.000000,104.000000 
	C42.666668,104.000000 21.833334,104.000000 1.000000,104.000000 
	C1.000000,69.666664 1.000000,35.333332 1.000000,1.000000 
	C38.000000,1.000000 75.000000,1.000000 112.000000,1.000000 
	C112.000000,35.333332 112.000000,69.666664 112.000000,104.000000 
	C96.166664,104.000000 80.333336,104.000000 64.000000,104.000000 
M45.500000,98.006851 
	C66.241844,98.006851 86.983688,98.006851 108.463570,98.006851 
	C91.471313,68.744560 74.885483,40.182178 57.967690,11.048113 
	C45.213051,33.032593 32.934315,54.196796 20.306055,75.963448 
	C23.220900,75.963448 25.221081,75.736153 27.150463,76.009171 
	C31.634552,76.643692 34.202152,75.014755 36.440399,70.863800 
	C42.584831,59.468594 49.341122,48.402966 55.879452,37.221050 
	C56.484348,36.186550 57.261795,35.252949 58.207054,33.923908 
	C68.585320,51.803829 78.645393,69.135567 89.057762,87.074257 
	C86.564568,87.074257 84.794220,87.073906 83.023872,87.074318 
	C62.525730,87.079117 42.027584,87.084122 21.529442,87.088837 
	C13.135038,87.090759 10.392231,89.365585 8.484995,98.006851 
	C20.507383,98.006851 32.503693,98.006851 45.500000,98.006851 
z"/>
<path fill="#F9F9F9" opacity="1.000000" stroke="none" 
	d="
M45.000000,98.006851 
	C32.503693,98.006851 20.507383,98.006851 8.484995,98.006851 
	C10.392231,89.365585 13.135038,87.090759 21.529442,87.088837 
	C42.027584,87.084122 62.525730,87.079117 83.023872,87.074318 
	C84.794220,87.073906 86.564568,87.074257 89.057762,87.074257 
	C78.645393,69.135567 68.585320,51.803829 58.207054,33.923908 
	C57.261795,35.252949 56.484348,36.186550 55.879452,37.221050 
	C49.341122,48.402966 42.584831,59.468594 36.440399,70.863800 
	C34.202152,75.014755 31.634552,76.643692 27.150463,76.009171 
	C25.221081,75.736153 23.220900,75.963448 20.306055,75.963448 
	C32.934315,54.196796 45.213051,33.032593 57.967690,11.048113 
	C74.885483,40.182178 91.471313,68.744560 108.463570,98.006851 
	C86.983688,98.006851 66.241844,98.006851 45.000000,98.006851 
z"/>
</svg>